<svg width="1440" height="900" viewBox="0 0 1440 900" fill="none" xmlns="http://www.w3.org/2000/svg">
<g opacity="0.1">
<path d="M1218.86 136.216L1140.69 0.0634817H1041.94L1120.11 204.292L1218.86 136.216Z" fill="#0A1541"/>
<path d="M1120.11 204.293L1244.57 274.029L1193.14 177.726L1218.86 136.216L1120.11 204.293Z" fill="#0B1855"/>
<path d="M1228.11 571.241L1244.57 274.029L1120.11 204.293L1228.11 571.241Z" fill="#162158"/>
<path d="M1416.34 313.88L1440 16.6683L1244.57 274.03L1416.34 313.88Z" fill="#202E6B"/>
<path d="M1120.11 204.292L1041.94 0.0634817H909.257L1120.11 204.292Z" fill="#0F1B4D"/>
<path d="M1053.26 627.695L825.344 0.0641074H909.257L1120.11 204.293L1053.26 627.695Z" fill="#4A669D"/>
<path d="M1130.4 828.6L1228.11 571.238L1163.31 853.506L1130.4 828.6Z" fill="#162158"/>
<path d="M173.829 561.279L383.657 900H545.143L561.6 684.148L173.829 561.279Z" fill="#131E54"/>
<path d="M173.829 561.278L561.6 684.148L324 176.066L173.829 561.278Z" fill="#1D2A67"/>
<path d="M324 176.066L561.6 684.148L749.829 0.0634317H589.371L324 176.066Z" fill="#202E6B"/>
<path d="M324 176.066L589.372 0.0641418L313.714 0.0641418L324 176.066Z" fill="#92BED9"/>
<path d="M324 176.066L0 292.294L0 378.635L173.829 561.279L324 176.066Z" fill="#2B3D7B"/>
<path d="M173.829 561.279L193.371 900H383.657L173.829 561.279Z" fill="#6D90BA"/>
<path d="M561.6 684.147L668.572 885.055L1053.26 627.694L561.6 684.147Z" fill="#111D51"/>
<path d="M0 293.954L0 257.425L259.2 0.0632837H313.714L324 176.066L0 293.954Z" fill="#4A669C"/>
<path d="M0 257.426L0 0.0639126H259.2L0 257.426Z" fill="#597AA7"/>
<path d="M0 641.431L0 378.634L173.829 561.277L0 641.431Z" fill="#6E92BD"/>
<path d="M173.829 561.279L0 748.904L0 640.978L173.829 561.279Z" fill="#A4D9E7"/>
<path d="M0 900L0 748.904L173.829 561.279L193.371 900H0Z" fill="#91BFD9"/>
<path d="M561.6 684.148L1053.26 627.694L825.389 0.0634317H749.829L561.6 684.148Z" fill="#0A1541"/>
<path d="M668.571 885.056L698.4 900H1010.73L1053.26 627.695L668.571 885.056Z" fill="#263674"/>
<path d="M545.143 900H660.343L668.571 885.056L561.6 684.148L545.143 900Z" fill="#1A2A65"/>
<path d="M660.343 900L668.571 885.055L698.4 900H660.343Z" fill="#424954"/>
<path d="M1010.06 900H1078.97L1130.4 828.603L1053.26 627.695L1010.06 900Z" fill="#283A7A"/>
<path d="M1100.57 900L1130.4 828.603L1078.97 900H1100.57Z" fill="#0B1538"/>
<path d="M1130.4 828.603L1163.31 853.509L1136.57 900H1100.57L1130.4 828.603Z" fill="#131E53"/>
<path d="M1136.57 900H1188L1163.31 853.506L1136.57 900Z" fill="#0B1538"/>
<path d="M1053.26 627.695L1228.11 571.241L1130.4 828.603L1053.26 627.695Z" fill="#5270A4"/>
<path d="M1228.11 571.241L1120.11 204.293L1053.26 627.695L1228.11 571.241Z" fill="#263674"/>
<path d="M1218.86 136.216L1140.69 0.0633497H1300.11L1218.86 136.216Z" fill="#0D1846"/>
<path d="M1218.86 136.216L1440 16.6673V0.0633722L1300.11 -0.000486404L1218.86 136.216Z" fill="#1E2C69"/>
<path d="M1244.57 274.029L1218.86 136.216L1192.11 177.726L1244.57 274.029Z" fill="#1C2A67"/>
<path d="M1244.57 274.029L1218.86 136.216L1440 16.6675L1244.57 274.029Z" fill="#192964"/>
<path d="M1228.11 571.241L1244.57 274.029L1416.34 313.879L1228.11 571.241Z" fill="#4A669D"/>
<path d="M1163.31 853.509L1301.14 900H1440V795.395L1228.11 571.241L1163.31 853.509Z" fill="#0D1846"/>
<path d="M1188 900L1163.31 853.506L1302.93 900H1188Z" fill="#0C1745"/>
<path d="M1228.11 571.242L1440 458.335V796.629L1228.11 571.242Z" fill="#0C1745"/>
<path d="M1228.11 571.241L1440 280.671V458.334L1228.11 571.241Z" fill="#263674"/>
<path d="M1416.34 313.88L1440 16.6683V283.992L1416.34 313.88Z" fill="#0B1538"/>
</g>
</svg>
