<svg width="32" height="32" viewBox="0 0 32 32" fill="none" xmlns="http://www.w3.org/2000/svg">
<g clip-path="url(#clip0)">
<path d="M16 27.5C9.65865 27.5 4.5 22.3414 4.5 16C4.5 9.65865 9.65865 4.5 16 4.5C22.3414 4.5 27.5 9.65865 27.5 16C27.5 22.3414 22.3414 27.5 16 27.5ZM16 5.9375C10.4513 5.9375 5.9375 10.4513 5.9375 16C5.9375 21.5487 10.4513 26.0625 16 26.0625C21.5487 26.0625 26.0625 21.5487 26.0625 16C26.0625 10.4513 21.5487 5.9375 16 5.9375Z" fill="white"/>
<path d="M21.0312 16.7188H10.9688C10.572 16.7188 10.25 16.3968 10.25 16C10.25 15.6032 10.572 15.2812 10.9688 15.2812H21.0312C21.428 15.2812 21.75 15.6032 21.75 16C21.75 16.3968 21.428 16.7188 21.0312 16.7188Z" fill="white"/>
<path d="M16 21.75C15.6032 21.75 15.2812 21.428 15.2812 21.0312V10.9688C15.2812 10.572 15.6032 10.25 16 10.25C16.3968 10.25 16.7188 10.572 16.7188 10.9688V21.0312C16.7188 21.428 16.3968 21.75 16 21.75Z" fill="white"/>
</g>
<defs>
<clipPath id="clip0">
<rect width="23" height="23" fill="white" transform="translate(4.5 4.5)"/>
</clipPath>
</defs>
</svg>
