<svg width="34" height="34" viewBox="0 0 34 34" fill="none" xmlns="http://www.w3.org/2000/svg">
<path d="M0 3.95349C0 1.77004 1.77004 0 3.95349 0H30.0465C32.23 0 34 1.77004 34 3.95349V30.0465C34 32.23 32.23 34 30.0465 34H3.95349C1.77004 34 0 32.23 0 30.0465V3.95349Z" fill="#0468DE"/>
<path d="M11.6447 12.759C11.6447 10.8764 13.1765 9.34461 15.0591 9.34461H21.6241C21.3876 8.51725 20.6335 7.90698 19.7314 7.90698H11.465C10.3746 7.90698 9.48828 8.79328 9.48828 9.88372V21.0254C9.48828 22.1158 10.3746 23.0021 11.465 23.0021H11.6447V12.759Z" fill="white"/>
<path d="M23.3257 10.7822H15.0593C13.9688 10.7822 13.0825 11.6685 13.0825 12.759V23.1818C13.0825 24.2722 13.9688 25.1586 15.0593 25.1586H23.3257C24.4161 25.1586 25.3024 24.2722 25.3024 23.1818V12.759C25.3024 11.6685 24.4161 10.7822 23.3257 10.7822ZM21.888 23.0021H16.4969C16.1993 23.0021 15.9578 22.7606 15.9578 22.463C15.9578 22.1654 16.1993 21.9239 16.4969 21.9239H21.888C22.1856 21.9239 22.4271 22.1654 22.4271 22.463C22.4271 22.7606 22.1856 23.0021 21.888 23.0021ZM21.888 20.1268H16.4969C16.1993 20.1268 15.9578 19.8853 15.9578 19.5877C15.9578 19.2901 16.1993 19.0486 16.4969 19.0486H21.888C22.1856 19.0486 22.4271 19.2901 22.4271 19.5877C22.4271 19.8853 22.1856 20.1268 21.888 20.1268ZM21.888 17.611H16.4969C16.1993 17.611 15.9578 17.3695 15.9578 17.0719C15.9578 16.7743 16.1993 16.5328 16.4969 16.5328H21.888C22.1856 16.5328 22.4271 16.7743 22.4271 17.0719C22.4271 17.3695 22.1856 17.611 21.888 17.611ZM21.888 14.7357H16.4969C16.1993 14.7357 15.9578 14.4942 15.9578 14.1966C15.9578 13.899 16.1993 13.6575 16.4969 13.6575H21.888C22.1856 13.6575 22.4271 13.899 22.4271 14.1966C22.4271 14.4942 22.1856 14.7357 21.888 14.7357Z" fill="white"/>
</svg>
