<svg width="25" height="21" viewBox="0 0 25 21" fill="none" xmlns="http://www.w3.org/2000/svg">
<g clip-path="url(#clip0)">
<path d="M11.1911 16.3157C10.8899 16.3157 10.588 16.2009 10.3576 15.9704L3.73099 9.34309C3.27062 8.88271 3.27062 8.13706 3.73099 7.67663C4.19044 7.2157 4.93762 7.2157 5.39794 7.67663L11.191 13.4706L20.4728 4.18878V1.14727C20.4728 0.659124 20.0775 0.263554 19.5893 0.263554H0.884267C0.396121 0.263554 0 0.659185 0 1.14727V19.8522C0 20.3403 0.396121 20.7364 0.884267 20.7364H19.5893C20.0775 20.7364 20.4728 20.3403 20.4728 19.8522V7.52299L12.0247 15.9704C11.7946 16.2012 11.4931 16.3157 11.1911 16.3157Z" fill="#D3D9E5"/>
<path d="M24.6541 1.67429C24.1939 1.21391 23.4465 1.21391 22.9878 1.67429L20.4727 4.18878V7.52293L24.6541 3.34124C25.115 2.88148 25.115 2.13546 24.6541 1.67429Z" fill="#D3D9E5"/>
</g>
<defs>
<clipPath id="clip0">
<rect width="24.9999" height="20.4729" fill="white" transform="translate(0 0.263554)"/>
</clipPath>
</defs>
</svg>
