<svg width="13" height="15" viewBox="0 0 13 15" fill="none" xmlns="http://www.w3.org/2000/svg">
<path d="M7.29681 5.64961L4.5929 8.78963C4.3844 9.03153 4.3844 9.42403 4.5929 9.66596C4.8012 9.90806 5.13919 9.90806 5.34751 9.66596L8.05142 6.52594C8.15567 6.40487 8.20778 6.24644 8.20778 6.08777C8.20778 5.92911 8.15567 5.77067 8.05142 5.64961C7.8431 5.40751 7.50511 5.40751 7.29681 5.64961Z" fill="url(#paint0_linear)"/>
<path d="M2.19143 6.00064L1.13921 7.22235C-0.381211 9.01194 -0.379977 11.9059 1.14437 13.6765C2.68561 15.4424 5.17746 15.441 6.69948 13.6734L7.74904 12.4546C7.85329 12.3337 7.9054 12.1751 7.9054 12.0164C7.9054 11.858 7.85329 11.6993 7.74886 11.5783C7.54056 11.3362 7.20258 11.3362 6.99425 11.5783L5.94469 12.7971C4.83609 14.0845 3.01895 14.0833 1.89646 12.7971C0.788029 11.5095 0.789116 9.39928 1.89646 8.09575L2.94602 6.87691C3.15452 6.63479 3.15452 6.24271 2.94602 6.00059C2.73772 5.75852 2.39973 5.75852 2.19143 6.00064Z" fill="url(#paint1_linear)"/>
<path d="M5.94504 1.64157L4.89548 2.86018C4.68718 3.10227 4.68718 3.49437 4.89548 3.7365C5.10396 3.97863 5.44197 3.97863 5.65027 3.7365L6.69983 2.5179C7.80861 1.23048 9.62574 1.23172 10.7482 2.5179C11.8567 3.80511 11.8558 5.91533 10.7482 7.21926L9.69887 8.43809C9.4904 8.67999 9.4904 9.07249 9.69887 9.31462C9.90737 9.55675 10.2452 9.55675 10.4535 9.31462L11.5055 8.09292C12.2649 7.19904 12.6449 6.02939 12.6449 4.86221C12.6449 3.69256 12.2633 2.52495 11.5004 1.63853C9.95894 -0.1274 7.46706 -0.126139 5.94504 1.64157Z" fill="url(#paint2_linear)"/>
<defs>
<linearGradient id="paint0_linear" x1="4.43652" y1="7.65778" x2="8.20778" y2="7.65778" gradientUnits="userSpaceOnUse">
<stop stop-color="#4AB8FB"/>
<stop offset="1" stop-color="white"/>
</linearGradient>
<linearGradient id="paint1_linear" x1="0" y1="10.4095" x2="7.9054" y2="10.4095" gradientUnits="userSpaceOnUse">
<stop stop-color="#4AB8FB"/>
<stop offset="1" stop-color="white"/>
</linearGradient>
<linearGradient id="paint2_linear" x1="4.73926" y1="4.90558" x2="12.6449" y2="4.90558" gradientUnits="userSpaceOnUse">
<stop stop-color="#4AB8FB"/>
<stop offset="1" stop-color="white"/>
</linearGradient>
</defs>
</svg>
