<svg width="20" height="20" viewBox="0 0 20 20" fill="none" xmlns="http://www.w3.org/2000/svg">
<path d="M5.89141 12.8671C5.89141 12.535 5.66094 12.3369 5.25429 12.3369C5.08824 12.3369 4.97578 12.3533 4.91696 12.369V13.4347C4.98661 13.4503 5.07223 13.4556 5.19024 13.4556C5.62368 13.4556 5.89141 13.2366 5.89141 12.8671Z" fill="white"/>
<path d="M8.40873 12.3486C8.22663 12.3486 8.10894 12.3644 8.03934 12.3807V14.7408C8.10899 14.7571 8.22144 14.7571 8.32311 14.7571C9.06186 14.7624 9.54367 14.3557 9.54367 13.4941C9.5489 12.7448 9.10986 12.3486 8.40873 12.3486Z" fill="white"/>
<path d="M13.0858 0H5.05294C3.87942 0 2.92431 0.95578 2.92431 2.12863V9.99996H2.7164C2.24276 9.99996 1.85864 10.3837 1.85864 10.8578V16.0597C1.85864 16.5337 2.24272 16.9175 2.7164 16.9175H2.92431V17.8713C2.92431 19.0455 3.87942 20 5.05294 20H16.0134C17.1861 20 18.1414 19.0454 18.1414 17.8713V5.03791L13.0858 0ZM4.1089 11.7965C4.36028 11.7541 4.71362 11.722 5.21145 11.722C5.71454 11.722 6.0731 11.8181 6.31403 12.011C6.54417 12.1927 6.69948 12.4928 6.69948 12.8459C6.69948 13.1989 6.58179 13.499 6.36767 13.7023C6.08916 13.9645 5.67728 14.0821 5.19547 14.0821C5.08824 14.0821 4.99213 14.0768 4.91697 14.0664V15.3563H4.1089V11.7965ZM16.0134 18.6964H5.05294C4.59855 18.6964 4.22854 18.3263 4.22854 17.8713V16.9175H14.4459C14.9196 16.9175 15.3037 16.5337 15.3037 16.0597V10.8578C15.3037 10.3837 14.9196 9.99996 14.4459 9.99996H4.22854V2.12863C4.22854 1.67491 4.59859 1.30489 5.05294 1.30489L12.5981 1.29701V4.08595C12.5981 4.90057 13.259 5.56216 14.0743 5.56216L16.8063 5.55432L16.8371 17.8713C16.8371 18.3263 16.4677 18.6964 16.0134 18.6964ZM7.22053 15.34V11.7965C7.52024 11.7488 7.91087 11.722 8.32311 11.722C9.00823 11.722 9.4525 11.8449 9.80061 12.1071C10.1752 12.3856 10.4106 12.8295 10.4106 13.4669C10.4106 14.1573 10.1592 14.6339 9.81102 14.928C9.43117 15.2438 8.85296 15.3935 8.14657 15.3935C7.72354 15.3935 7.42383 15.3667 7.22053 15.34ZM13.0623 13.242V13.9056H11.7668V15.3563H10.948V11.7488H13.1531V12.4176H11.7668V13.242H13.0623Z" fill="white"/>
</svg>
