<svg width="34" height="34" viewBox="0 0 34 34" fill="none" xmlns="http://www.w3.org/2000/svg">
<path d="M0 3.95349C0 1.77004 1.77004 0 3.95349 0H30.0465C32.23 0 34 1.77004 34 3.95349V30.0465C34 32.23 32.23 34 30.0465 34H3.95349C1.77004 34 0 32.23 0 30.0465V3.95349Z" fill="#004CA5"/>
<g clip-path="url(#clip0)">
<path d="M23.5627 15.2605C23.4045 14.5488 23.0883 13.8372 22.6929 13.2046L23.4836 11.5442L22.3766 10.4372L20.7162 11.2279C20.0836 10.8326 19.4511 10.5163 18.6604 10.3581L18.186 8.69767H16.6046L16.0511 10.4372C15.2604 10.5953 14.6278 10.9116 13.9953 11.307L12.3348 10.5163L11.2278 11.5442L12.0185 13.2046C11.6231 13.8372 11.3069 14.4698 11.1487 15.2605L9.48828 15.8139V17.3954L11.2278 17.9488C11.386 18.6605 11.7022 19.3721 12.0976 20.0047L11.3069 21.6651L12.4139 22.7721L14.0743 21.9814C14.7069 22.3768 15.3394 22.6931 16.1302 22.8512L16.6046 24.5117H18.186L18.7395 22.7721C19.4511 22.614 20.1627 22.2977 20.7953 21.9024L22.4558 22.6931L23.5627 21.5861L22.7721 19.9256C23.1674 19.293 23.4837 18.6605 23.6418 17.8698L25.3023 17.3954V15.8139L23.5627 15.2605ZM17.3952 19.6884C15.6557 19.6884 14.2325 18.2651 14.2325 16.6046C14.2325 14.8651 15.6557 13.4419 17.3952 13.4419C19.1348 13.4419 20.558 14.8651 20.558 16.6046C20.558 18.3442 19.1348 19.6884 17.3952 19.6884Z" fill="white"/>
</g>
<defs>
<clipPath id="clip0">
<rect width="15.814" height="15.814" fill="white" transform="translate(9.48828 8.69767)"/>
</clipPath>
</defs>
</svg>
