<svg width="22" height="24" viewBox="0 0 22 24" fill="none" xmlns="http://www.w3.org/2000/svg">
<path d="M12.6958 8.55463L7.99131 13.5901C7.62855 13.978 7.62855 14.6074 7.99131 14.9954C8.35373 15.3836 8.94179 15.3836 9.30425 14.9954L14.0087 9.95993C14.1901 9.76579 14.2808 9.51172 14.2808 9.25728C14.2808 9.00285 14.1901 8.74878 14.0087 8.55463C13.6463 8.1664 13.0582 8.1664 12.6958 8.55463Z" fill="#D3D9E5"/>
<path d="M3.81282 9.11764L1.98208 11.0768C-0.663262 13.9466 -0.661114 18.5875 1.99106 21.4269C4.67263 24.2586 9.00816 24.2563 11.6563 21.4219L13.4824 19.4674C13.6638 19.2736 13.7544 19.0192 13.7544 18.7647C13.7544 18.5106 13.6638 18.2562 13.4821 18.0621C13.1197 17.6738 12.5316 17.6738 12.1692 18.0621L10.3431 20.0166C8.41421 22.0812 5.25261 22.0792 3.29962 20.0166C1.37108 17.9518 1.37297 14.5678 3.29962 12.4774L5.12572 10.5228C5.48848 10.1346 5.48848 9.50583 5.12572 9.11755C4.7633 8.72936 4.17524 8.72936 3.81282 9.11764Z" fill="#D3D9E5"/>
<path d="M10.343 2.12739L8.51693 4.08158C8.15451 4.46982 8.15451 5.0986 8.51693 5.48688C8.87965 5.87516 9.46775 5.87516 9.83017 5.48688L11.6563 3.53269C13.5854 1.46816 16.747 1.47014 18.7 3.53269C20.6286 5.5969 20.627 8.98089 18.7 11.0719L16.8743 13.0265C16.5115 13.4144 16.5115 14.0438 16.8743 14.4321C17.237 14.8204 17.8247 14.8204 18.1872 14.4321L20.0176 12.4729C21.3389 11.0395 22 9.16381 22 7.29209C22 5.41642 21.3361 3.544 20.0086 2.12252C17.3267 -0.70937 12.9912 -0.707347 10.343 2.12739Z" fill="#D3D9E5"/>
</svg>
