<svg width="34" height="34" viewBox="0 0 34 34" fill="none" xmlns="http://www.w3.org/2000/svg">
<path d="M27.625 33.5H6.375C3.13005 33.5 0.5 30.8699 0.5 27.625V6.375C0.5 3.13005 3.13005 0.5 6.375 0.5H27.625C30.8699 0.5 33.5 3.13005 33.5 6.375V27.625C33.5 30.8699 30.8699 33.5 27.625 33.5Z" fill="#0F132C" stroke="url(#paint0_angular)"/>
<path d="M17.0002 17C17.0002 17.1414 16.9576 17.2838 16.8801 17.3899L13.3388 22.7024C13.2114 22.8938 12.9987 23.0212 12.7512 23.0212H10.6262C10.2363 23.0212 9.91754 22.7024 9.91754 22.3125C9.91754 22.1711 9.96008 22.0287 10.0376 21.9226L13.3165 17L10.0366 12.0774C9.95905 11.9713 9.9165 11.8299 9.9165 11.6875C9.9165 11.2976 10.2353 10.9788 10.6252 10.9788H12.7502C12.9977 10.9788 13.2104 11.1062 13.3377 11.2976L16.879 16.6101C16.9576 16.7162 17.0002 16.8586 17.0002 17Z" fill="#4AB8FB"/>
<path d="M24.0837 17C24.0837 17.1414 24.0411 17.2838 23.9636 17.3899L20.4223 22.7024C20.2949 22.8938 20.0822 23.0212 19.8347 23.0212H17.7097C17.3188 23.0212 17 22.7024 17 22.3125C17 22.1711 17.0425 22.0287 17.1201 21.9226L20.3999 17L17.1201 12.0774C17.0425 11.9713 17 11.8289 17 11.6875C17 11.2976 17.3188 10.9788 17.7087 10.9788H19.8337C20.0811 10.9788 20.2939 11.1062 20.4212 11.2976L23.9625 16.6101C24.0411 16.7162 24.0837 16.8586 24.0837 17Z" fill="#1F62F2"/>
<defs>
<radialGradient id="paint0_angular" cx="0" cy="0" r="1" gradientUnits="userSpaceOnUse" gradientTransform="translate(17 17) rotate(90) scale(17)">
<stop stop-color="#0641BF"/>
<stop offset="0.322917" stop-color="#4AB8FB"/>
<stop offset="0.510417" stop-color="#DAF2FE"/>
<stop offset="0.692708" stop-color="#4AB8FB"/>
<stop offset="1" stop-color="#0641BF"/>
</radialGradient>
</defs>
</svg>
