<svg width="40" height="37" viewBox="0 0 40 37" fill="none" xmlns="http://www.w3.org/2000/svg">
<ellipse cx="14.984" cy="16.7924" rx="7.36925" ry="6.66742" fill="white"/>
<ellipse cx="14.984" cy="16.7924" rx="7.36925" ry="6.66742" fill="white"/>
<path d="M18.2476 17.1558C18.2476 18.5128 17.1479 19.6129 15.7913 19.6129C14.4347 19.6129 13.335 18.5128 13.335 17.1558C13.335 16.4079 13.669 15.738 14.1961 15.2873C14.1751 15.3437 14.1639 15.4027 14.1639 15.4634C14.1639 15.8706 14.6653 16.2007 15.2838 16.2007C15.9023 16.2007 16.4037 15.8706 16.4037 15.4634C16.4037 15.0817 15.9631 14.7678 15.3985 14.73C15.5264 14.7094 15.6576 14.6987 15.7913 14.6987C17.1479 14.6987 18.2476 15.7988 18.2476 17.1558Z" fill="url(#paint0_angular)"/>
<ellipse cx="25.3879" cy="16.7953" rx="6.44012" ry="6.71129" fill="white"/>
<ellipse cx="25.3879" cy="16.7953" rx="6.44012" ry="6.71129" fill="white"/>
<path d="M26.6578 17.1449C26.6578 18.5019 25.558 19.602 24.2014 19.602C22.8448 19.602 21.7451 18.5019 21.7451 17.1449C21.7451 16.6862 21.8708 16.2567 22.0897 15.8893C22.2935 16.0715 22.6218 16.1897 22.992 16.1897C23.6105 16.1897 24.1118 15.8597 24.1118 15.4525C24.1118 15.1633 23.8589 14.913 23.4908 14.7923C23.7158 14.7244 23.9543 14.6879 24.2014 14.6879C25.558 14.6879 26.6578 15.7879 26.6578 17.1449Z" fill="url(#paint1_angular)"/>
<path d="M19.8968 34.5866C29.7809 34.5866 37.7935 27.3822 37.7935 18.4951C37.7935 9.60803 29.7809 2.40363 19.8968 2.40363C10.0127 2.40363 2 9.60803 2 18.4951C2 27.3822 10.0127 34.5866 19.8968 34.5866Z" stroke="url(#paint2_linear)" stroke-opacity="0.5" stroke-width="3.64815"/>
<path d="M24.1799 11.2591C23.7551 10.9206 28.1119 6.25123 29.7377 6.22745C29.8461 6.22585 29.9424 6.245 30.0243 6.28734C30.1604 6.76259 30.2717 7.2114 30.3782 7.64062C30.681 8.8613 30.9446 9.92364 31.6268 10.9856C33.0791 12.4705 33.8912 14.4419 33.8956 16.4931C33.8956 18.6168 33.0299 20.6535 31.4889 22.1551C29.9479 23.6568 27.8578 24.5004 25.6785 24.5004C23.5114 24.4982 21.4329 23.6618 19.8956 22.1733C18.3583 23.6618 16.2798 24.4984 14.1126 24.5007C11.9333 24.5007 9.84324 23.6571 8.30224 22.1554C6.76123 20.6538 5.8955 18.6171 5.89551 16.4934C5.89992 14.4421 6.71202 12.4708 8.16431 10.9859C8.84644 9.92406 9.10995 8.86185 9.41272 7.64137C9.51924 7.212 9.63061 6.76304 9.76679 6.28763C9.84869 6.24529 9.94494 6.22629 10.0534 6.22774C11.6792 6.25152 16.036 10.9209 15.6112 11.2594C14.8849 11.1626 14.2608 11.0969 13.7148 11.0547C12.2494 11.1567 10.8787 11.7844 9.87777 12.8117C8.87681 13.839 8.3197 15.19 8.31826 16.5934C8.31827 18.0677 8.93138 19.4816 10.0227 20.524C11.1141 21.5665 12.5942 22.1522 14.1376 22.1522C15.5417 22.1507 16.898 21.6643 17.9562 20.7827C19.0142 19.9012 19.703 18.684 19.8955 17.3556C20.088 18.684 20.7769 19.9009 21.8349 20.7824C22.8931 21.664 24.2494 22.1504 25.6535 22.1519C27.1969 22.1519 28.677 21.5662 29.7684 20.5238C30.8597 19.4813 31.4728 18.0674 31.4728 16.5931C31.4714 15.1897 30.9143 13.8387 29.9133 12.8114C28.9123 11.784 27.5416 11.1564 26.0763 11.0545C25.5303 11.0966 24.9061 11.1623 24.1799 11.2591Z" fill="url(#paint3_linear)"/>
<path d="M23.5779 8.76495C23.8629 8.69076 24.1519 8.63158 24.4434 8.58767H24.4446C24.0606 8.92054 23.7091 9.23431 23.3844 9.5335C20.7879 12.0019 20.437 13.1274 20.0861 14.2529C20.0349 14.4171 19.9838 14.5813 19.9256 14.7497L19.8964 14.7504V10.8095V8.60264L23.5779 8.76495Z" fill="url(#paint4_linear)"/>
<path d="M15.3477 8.58797C15.6392 8.63188 15.9287 8.69123 16.2137 8.76542L19.8951 8.60311V10.8092L19.8964 10.8095V14.7504L19.8668 14.7508C19.8086 14.5824 19.7573 14.4175 19.7061 14.2532C19.3552 13.1278 19.0043 12.0023 16.4079 9.53389C16.0831 9.23471 15.7317 8.92084 15.3477 8.58797Z" fill="url(#paint5_linear)"/>
<path d="M19.8955 22.1737L22.6153 23.7069L19.8955 26.792V22.1737Z" fill="#FF990F"/>
<path d="M19.8961 22.1736L17.1763 23.7069L19.8961 26.792V22.1736Z" fill="#FFB34D"/>
<path d="M31.1819 10.5979V6.11716H33.7218V9.29453H32.4518V11.9835H36.403V9.29453H35.5571V6.11716H37.1098V4.74225H2.68213V6.11716H7.90325V10.5979L19.8959 12.6339L31.1819 10.5979Z" fill="url(#paint6_angular)"/>
<path d="M33.6891 21.3425V25.8105C30.9116 29.9333 25.8472 32.7625 19.8971 32.7625C13.8213 32.7625 8.66895 29.8125 5.93213 25.5475V21.3425L7.52402 22.8681C8.28484 23.8288 9.25957 24.6066 10.3739 25.1423C11.4882 25.6779 12.7127 25.9574 13.954 25.9592C15.0489 25.9572 16.1322 25.7392 17.1392 25.3182L19.8106 28.5718L22.482 25.3182C23.489 25.7392 24.5723 25.9572 25.6672 25.9592C26.9085 25.9574 28.133 25.6779 29.2473 25.1423C30.3616 24.6066 31.3364 23.8288 32.0972 22.8681L33.6891 21.3425Z" fill="url(#paint7_linear)"/>
<defs>
<radialGradient id="paint0_angular" cx="0" cy="0" r="1" gradientUnits="userSpaceOnUse" gradientTransform="translate(15.7913 17.1558) rotate(90) scale(2.45707 2.45632)">
<stop stop-color="#3A4759"/>
<stop offset="1" stop-color="#031845"/>
</radialGradient>
<radialGradient id="paint1_angular" cx="0" cy="0" r="1" gradientUnits="userSpaceOnUse" gradientTransform="translate(24.2014 17.1449) rotate(90) scale(2.45707 2.45632)">
<stop stop-color="#3A4759"/>
<stop offset="1" stop-color="#031845"/>
</radialGradient>
<linearGradient id="paint2_linear" x1="19.8968" y1="2.40363" x2="19.8968" y2="34.5866" gradientUnits="userSpaceOnUse">
<stop stop-color="#DAF2FE"/>
<stop offset="0.207385" stop-color="#4AB8FB"/>
<stop offset="1" stop-color="#0140C7"/>
</linearGradient>
<linearGradient id="paint3_linear" x1="19.8956" y1="6.22736" x2="19.8956" y2="24.5007" gradientUnits="userSpaceOnUse">
<stop offset="0.453125" stop-color="#1F62F2"/>
<stop offset="0.9999" stop-color="#4AB8FB"/>
<stop offset="1" stop-color="#DAF2FE"/>
</linearGradient>
<linearGradient id="paint4_linear" x1="19.8956" y1="6.22736" x2="19.8956" y2="24.5007" gradientUnits="userSpaceOnUse">
<stop offset="0.453125" stop-color="#1F62F2"/>
<stop offset="0.9999" stop-color="#4AB8FB"/>
<stop offset="1" stop-color="#DAF2FE"/>
</linearGradient>
<linearGradient id="paint5_linear" x1="19.8956" y1="6.22736" x2="19.8956" y2="24.5007" gradientUnits="userSpaceOnUse">
<stop offset="0.453125" stop-color="#1F62F2"/>
<stop offset="0.9999" stop-color="#4AB8FB"/>
<stop offset="1" stop-color="#DAF2FE"/>
</linearGradient>
<radialGradient id="paint6_angular" cx="0" cy="0" r="1" gradientUnits="userSpaceOnUse" gradientTransform="translate(19.8959 8.68806) rotate(90) scale(3.94581 17.2138)">
<stop stop-color="#3A4759"/>
<stop offset="1" stop-color="#031845"/>
</radialGradient>
<linearGradient id="paint7_linear" x1="26.8796" y1="16.6577" x2="26.8796" y2="33.0034" gradientUnits="userSpaceOnUse">
<stop offset="0.453125" stop-color="#1F62F2"/>
<stop offset="0.9999" stop-color="#4AB8FB"/>
<stop offset="1" stop-color="#DAF2FE"/>
</linearGradient>
</defs>
</svg>
