<svg width="208" height="37" viewBox="0 0 208 37" fill="none" xmlns="http://www.w3.org/2000/svg">
<ellipse cx="14.984" cy="16.7924" rx="7.36925" ry="6.66742" fill="white"/>
<ellipse cx="14.984" cy="16.7924" rx="7.36925" ry="6.66742" fill="white"/>
<path d="M18.2476 17.1558C18.2476 18.5128 17.1479 19.6129 15.7913 19.6129C14.4347 19.6129 13.335 18.5128 13.335 17.1558C13.335 16.4079 13.669 15.738 14.1961 15.2873C14.1751 15.3437 14.1639 15.4027 14.1639 15.4634C14.1639 15.8706 14.6653 16.2007 15.2838 16.2007C15.9023 16.2007 16.4037 15.8706 16.4037 15.4634C16.4037 15.0817 15.9631 14.7678 15.3985 14.73C15.5264 14.7094 15.6576 14.6987 15.7913 14.6987C17.1479 14.6987 18.2476 15.7988 18.2476 17.1558Z" fill="url(#paint0_angular)"/>
<ellipse cx="25.3879" cy="16.7953" rx="6.44012" ry="6.71129" fill="white"/>
<ellipse cx="25.3879" cy="16.7953" rx="6.44012" ry="6.71129" fill="white"/>
<path d="M26.6578 17.1449C26.6578 18.5019 25.558 19.602 24.2014 19.602C22.8448 19.602 21.7451 18.5019 21.7451 17.1449C21.7451 16.6862 21.8708 16.2567 22.0897 15.8893C22.2935 16.0715 22.6218 16.1897 22.992 16.1897C23.6105 16.1897 24.1118 15.8597 24.1118 15.4525C24.1118 15.1633 23.8589 14.913 23.4908 14.7923C23.7158 14.7244 23.9543 14.6879 24.2014 14.6879C25.558 14.6879 26.6578 15.7879 26.6578 17.1449Z" fill="url(#paint1_angular)"/>
<path d="M19.8968 34.5866C29.7809 34.5866 37.7935 27.3822 37.7935 18.4951C37.7935 9.60803 29.7809 2.40363 19.8968 2.40363C10.0127 2.40363 2 9.60803 2 18.4951C2 27.3822 10.0127 34.5866 19.8968 34.5866Z" stroke="url(#paint2_linear)" stroke-opacity="0.5" stroke-width="3.64815"/>
<path d="M24.1799 11.2591C23.7551 10.9206 28.1119 6.25123 29.7377 6.22745C29.8461 6.22585 29.9424 6.245 30.0243 6.28734C30.1604 6.76259 30.2717 7.2114 30.3782 7.64062C30.681 8.8613 30.9446 9.92364 31.6268 10.9856C33.0791 12.4705 33.8912 14.4419 33.8956 16.4931C33.8956 18.6168 33.0299 20.6535 31.4889 22.1551C29.9479 23.6568 27.8578 24.5004 25.6785 24.5004C23.5114 24.4982 21.4329 23.6618 19.8956 22.1733C18.3583 23.6618 16.2798 24.4984 14.1126 24.5007C11.9333 24.5007 9.84324 23.6571 8.30224 22.1554C6.76123 20.6538 5.8955 18.6171 5.89551 16.4934C5.89992 14.4421 6.71202 12.4708 8.16431 10.9859C8.84644 9.92406 9.10995 8.86185 9.41272 7.64137C9.51924 7.212 9.63061 6.76304 9.76679 6.28763C9.84869 6.24529 9.94494 6.22629 10.0534 6.22774C11.6792 6.25152 16.036 10.9209 15.6112 11.2594C14.8849 11.1626 14.2608 11.0969 13.7148 11.0547C12.2494 11.1567 10.8787 11.7844 9.87777 12.8117C8.87681 13.839 8.3197 15.19 8.31826 16.5934C8.31827 18.0677 8.93138 19.4816 10.0227 20.524C11.1141 21.5665 12.5942 22.1522 14.1376 22.1522C15.5417 22.1507 16.898 21.6643 17.9562 20.7827C19.0142 19.9012 19.703 18.684 19.8955 17.3556C20.088 18.684 20.7769 19.9009 21.8349 20.7824C22.8931 21.664 24.2494 22.1504 25.6535 22.1519C27.1969 22.1519 28.677 21.5662 29.7684 20.5238C30.8597 19.4813 31.4728 18.0674 31.4728 16.5931C31.4714 15.1897 30.9143 13.8387 29.9133 12.8114C28.9123 11.784 27.5416 11.1564 26.0763 11.0545C25.5303 11.0966 24.9061 11.1623 24.1799 11.2591Z" fill="url(#paint3_linear)"/>
<path d="M23.5779 8.76495C23.8629 8.69076 24.1519 8.63158 24.4434 8.58767H24.4446C24.0606 8.92054 23.7091 9.23431 23.3844 9.5335C20.7879 12.0019 20.437 13.1274 20.0861 14.2529C20.0349 14.4171 19.9838 14.5813 19.9256 14.7497L19.8964 14.7504V10.8095V8.60264L23.5779 8.76495Z" fill="url(#paint4_linear)"/>
<path d="M15.3477 8.58797C15.6392 8.63188 15.9287 8.69123 16.2137 8.76542L19.8951 8.60311V10.8092L19.8964 10.8095V14.7504L19.8668 14.7508C19.8086 14.5824 19.7573 14.4175 19.7061 14.2532C19.3552 13.1278 19.0043 12.0023 16.4079 9.53389C16.0831 9.23471 15.7317 8.92084 15.3477 8.58797Z" fill="url(#paint5_linear)"/>
<path d="M19.8955 22.1737L22.6153 23.7069L19.8955 26.792V22.1737Z" fill="#FF990F"/>
<path d="M19.8961 22.1736L17.1763 23.7069L19.8961 26.792V22.1736Z" fill="#FFB34D"/>
<path d="M31.1819 10.5979V6.11716H33.7218V9.29453H32.4518V11.9835H36.403V9.29453H35.5571V6.11716H37.1098V4.74225H2.68213V6.11716H7.90325V10.5979L19.8959 12.6339L31.1819 10.5979Z" fill="url(#paint6_angular)"/>
<path d="M33.6891 21.3425V25.8105C30.9116 29.9333 25.8472 32.7625 19.8971 32.7625C13.8213 32.7625 8.66895 29.8125 5.93213 25.5475V21.3425L7.52402 22.8681C8.28484 23.8288 9.25957 24.6066 10.3739 25.1423C11.4882 25.6779 12.7127 25.9574 13.954 25.9592C15.0489 25.9572 16.1322 25.7392 17.1392 25.3182L19.8106 28.5718L22.482 25.3182C23.489 25.7392 24.5723 25.9572 25.6672 25.9592C26.9085 25.9574 28.133 25.6779 29.2473 25.1423C30.3616 24.6066 31.3364 23.8288 32.0972 22.8681L33.6891 21.3425Z" fill="url(#paint7_linear)"/>
<path d="M53.472 17.4765V24.7681H51.8566V17.4765C51.8566 17.2073 51.8192 16.9231 51.7445 16.6239C51.6846 16.3248 51.5575 16.0406 51.3631 15.7714C51.1686 15.4872 50.8695 15.2628 50.4656 15.0983C50.0618 14.9188 49.5233 14.8291 48.8503 14.8291C47.9229 14.8291 46.9432 14.9786 45.9112 15.2778V24.7681H44.2958V14.4701C45.7467 13.7372 47.3246 13.3708 49.0297 13.3708C49.7776 13.3708 50.4208 13.453 50.9592 13.6176C51.4977 13.7671 51.9464 13.9915 52.3054 14.2906C52.9036 13.9765 53.5169 13.7447 54.1451 13.5951C54.7733 13.4455 55.4164 13.3708 56.0745 13.3708C57.7049 13.3708 58.8491 13.7297 59.5072 14.4477C60.1803 15.1656 60.5168 16.1752 60.5168 17.4765V24.7681H58.9014V17.4765C58.9014 17.2073 58.864 16.9231 58.7893 16.6239C58.7294 16.3248 58.6023 16.0406 58.4078 15.7714C58.2134 15.4872 57.9143 15.2628 57.5104 15.0983C57.1066 14.9188 56.5681 14.8291 55.8951 14.8291C55.4613 14.8291 55.0126 14.8889 54.5489 15.0086C54.1002 15.1133 53.644 15.3077 53.1803 15.5919C53.3748 16.1154 53.472 16.7436 53.472 17.4765ZM65.3138 29.0981C65.0895 29.0981 64.8875 29.0757 64.7081 29.0308C64.5286 28.986 64.379 28.9411 64.2593 28.8962V27.4155C64.364 27.4603 64.4987 27.5052 64.6632 27.5501C64.8277 27.595 65.0147 27.6174 65.2241 27.6174C65.9271 27.6174 66.4506 27.3482 66.7946 26.8097C67.1535 26.2862 67.4676 25.6206 67.7369 24.8129L63.0927 13.5727H64.9324L68.4772 22.704L72.0221 13.5727H73.6374L68.8362 25.8674C68.4922 26.7499 68.1108 27.423 67.692 27.8866C67.2882 28.3503 66.8768 28.6644 66.458 28.8289C66.0542 29.0084 65.6728 29.0981 65.3138 29.0981ZM80.029 25.1046C78.279 25.1046 76.9777 24.5886 76.1252 23.5565C75.2876 22.5095 74.8688 21.0587 74.8688 19.204C74.8688 17.2596 75.31 15.8013 76.1925 14.8291C77.0899 13.8569 78.3538 13.3708 79.9841 13.3708C81.1956 13.3708 82.1828 13.6176 82.9456 14.1111C83.7084 14.5898 84.2693 15.2703 84.6283 16.1528C84.9873 17.0203 85.1667 18.0374 85.1667 19.204C85.1667 21.0437 84.718 22.4871 83.8206 23.5341C82.9381 24.5811 81.6743 25.1046 80.029 25.1046ZM80.0065 23.6238C80.9189 23.6238 81.6294 23.4294 82.1379 23.0405C82.6465 22.6367 83.0054 22.1057 83.2148 21.4476C83.4392 20.7745 83.5514 20.0267 83.5514 19.204C83.5514 17.8728 83.2896 16.8184 82.7661 16.0406C82.2426 15.2479 81.3228 14.8515 80.0065 14.8515C79.1091 14.8515 78.4061 15.046 77.8976 15.4348C77.389 15.8237 77.0226 16.3472 76.7982 17.0053C76.5888 17.6485 76.4841 18.3814 76.4841 19.204C76.4841 20.5203 76.7459 21.5897 77.2694 22.4123C77.7929 23.22 78.7053 23.6238 80.0065 23.6238ZM88.2031 14.4701C89.6539 13.7372 91.2319 13.3708 92.937 13.3708C94.5673 13.3708 95.7115 13.7297 96.3697 14.4477C97.0427 15.1656 97.3793 16.1752 97.3793 17.4765V24.7681H95.7639V17.4765C95.7639 17.2073 95.7265 16.9231 95.6517 16.6239C95.5919 16.3248 95.4648 16.0406 95.2703 15.7714C95.0759 15.4872 94.7767 15.2628 94.3729 15.0983C93.969 14.9188 93.4306 14.8291 92.7575 14.8291C91.8302 14.8291 90.8505 14.9786 89.8185 15.2778V24.7681H88.2031V14.4701ZM102.592 24.7681H100.977V9.30991H102.592V24.7681ZM106.191 11.5759V9.80349H107.986V11.5759H106.191ZM106.281 24.7681V13.5727H107.896V24.7681H106.281ZM111.581 14.4701C113.032 13.7372 114.61 13.3708 116.315 13.3708C117.945 13.3708 119.089 13.7297 119.747 14.4477C120.42 15.1656 120.757 16.1752 120.757 17.4765V24.7681H119.142V17.4765C119.142 17.2073 119.104 16.9231 119.029 16.6239C118.97 16.3248 118.843 16.0406 118.648 15.7714C118.454 15.4872 118.154 15.2628 117.751 15.0983C117.347 14.9188 116.808 14.8291 116.135 14.8291C115.208 14.8291 114.228 14.9786 113.196 15.2778V24.7681H111.581V14.4701ZM128.976 25.1046C127.376 25.1046 126.112 24.611 125.184 23.6238C124.257 22.6217 123.793 21.1335 123.793 19.1592C123.793 17.2297 124.227 15.7863 125.095 14.8291C125.977 13.8569 127.181 13.3708 128.707 13.3708C129.903 13.3708 130.861 13.64 131.579 14.1784C132.311 14.7169 132.835 15.4423 133.149 16.3547C133.463 17.2671 133.613 18.2991 133.598 19.4508H125.431C125.431 20.8119 125.745 21.8514 126.373 22.5694C127.017 23.2724 127.914 23.6238 129.066 23.6238C129.888 23.6238 130.614 23.5341 131.242 23.3546C131.885 23.1751 132.439 22.9433 132.902 22.6591V24.3194C131.81 24.8429 130.502 25.1046 128.976 25.1046ZM128.707 14.8515C127.764 14.8515 127.032 15.0759 126.508 15.5246C125.985 15.9583 125.648 16.7735 125.498 17.9701H131.893C131.833 16.9231 131.541 16.1453 131.018 15.6368C130.494 15.1133 129.724 14.8515 128.707 14.8515ZM139.787 25.1046C138.98 25.1046 138.299 25.0223 137.746 24.8578C137.207 24.6933 136.646 24.4614 136.063 24.1623V22.4572C136.751 22.8461 137.342 23.1377 137.835 23.3322C138.344 23.5266 138.957 23.6238 139.675 23.6238C140.423 23.6238 141.029 23.4593 141.492 23.1303C141.971 22.8012 142.21 22.3749 142.21 21.8514C142.21 21.4326 142.091 21.1111 141.851 20.8867C141.627 20.6623 141.335 20.4754 140.976 20.3258C140.617 20.1762 140.243 20.0192 139.854 19.8547C139.421 19.735 138.98 19.6079 138.531 19.4733C138.097 19.3237 137.693 19.1367 137.319 18.9124C136.96 18.673 136.669 18.3739 136.444 18.0149C136.22 17.641 136.108 17.1624 136.108 16.5791C136.108 15.8162 136.302 15.203 136.691 14.7393C137.08 14.2607 137.574 13.9167 138.172 13.7073C138.785 13.4829 139.398 13.3708 140.012 13.3708C140.685 13.3708 141.26 13.4605 141.739 13.64C142.218 13.8195 142.711 14.0214 143.22 14.2457V15.8611C142.651 15.562 142.143 15.3227 141.694 15.1432C141.246 14.9487 140.715 14.8515 140.101 14.8515C139.488 14.8515 138.935 14.9786 138.441 15.2329C137.962 15.4722 137.723 15.8462 137.723 16.3547C137.723 16.7735 137.843 17.11 138.082 17.3643C138.336 17.6036 138.665 17.7981 139.069 17.9476C139.473 18.0822 139.907 18.2169 140.371 18.3515C140.744 18.4711 141.133 18.6057 141.537 18.7553C141.941 18.8899 142.315 19.0769 142.659 19.3162C143.003 19.5406 143.28 19.8397 143.489 20.2136C143.713 20.5876 143.826 21.0662 143.826 21.6495C143.826 22.4422 143.624 23.1004 143.22 23.6238C142.816 24.1324 142.3 24.5063 141.672 24.7456C141.059 24.9849 140.43 25.1046 139.787 25.1046ZM150.378 24.9476C149.585 24.9476 148.92 24.7082 148.381 24.2296C147.843 23.736 147.574 23.0106 147.574 22.0534V15.0534H145.622V13.5727H147.574V10.4093H149.189V13.5727H152.083V15.0534H149.189V21.5373C149.189 22.1655 149.286 22.6367 149.481 22.9508C149.675 23.2649 150.071 23.4219 150.67 23.4219C151.223 23.4219 151.694 23.3322 152.083 23.1527V24.6783C151.874 24.7531 151.605 24.8129 151.275 24.8578C150.961 24.9176 150.662 24.9476 150.378 24.9476ZM158.865 25.1046C158.371 25.1046 157.87 25.0523 157.362 24.9476C156.868 24.8429 156.405 24.6634 155.971 24.4091C155.552 24.1548 155.208 23.8108 154.939 23.3771C154.685 22.9283 154.557 22.3675 154.557 21.6944C154.557 20.767 154.729 20.0267 155.073 19.4733C155.432 18.9049 155.918 18.501 156.532 18.2617C157.16 18.0075 157.878 17.8803 158.686 17.8803C159.523 17.8803 160.219 17.9551 160.772 18.1047C161.325 18.2393 161.804 18.4263 162.208 18.6656V17.3419C162.208 16.4744 161.954 15.8387 161.445 15.4348C160.937 15.031 160.211 14.8291 159.269 14.8291C158.671 14.8291 158.035 14.9188 157.362 15.0983C156.704 15.2628 156.135 15.5321 155.657 15.906V14.2906C156.12 13.9915 156.741 13.7671 157.519 13.6176C158.297 13.453 159.052 13.3708 159.785 13.3708C161.011 13.3708 161.991 13.6699 162.724 14.2682C163.472 14.8665 163.846 15.7639 163.846 16.9605V22.3899C163.846 23.1826 163.606 23.7734 163.128 24.1623C162.664 24.5512 162.051 24.8055 161.288 24.9251C160.54 25.0448 159.733 25.1046 158.865 25.1046ZM156.173 21.4476C156.173 22.001 156.322 22.4422 156.621 22.7713C156.936 23.1004 157.324 23.3322 157.788 23.4668C158.267 23.6014 158.753 23.6687 159.246 23.6687C160.219 23.6687 160.952 23.6014 161.445 23.4668C161.954 23.3172 162.208 22.9882 162.208 22.4796V19.9668C161.834 19.7874 161.378 19.6378 160.839 19.5181C160.301 19.3985 159.725 19.3386 159.112 19.3386C158.17 19.3386 157.444 19.5181 156.936 19.8771C156.427 20.2361 156.173 20.7596 156.173 21.4476ZM167.429 24.7681V14.4701C167.608 14.3953 167.952 14.2682 168.461 14.0887C168.984 13.9092 169.605 13.7447 170.323 13.5951C171.056 13.4455 171.811 13.3708 172.589 13.3708C172.709 13.3708 172.828 13.3857 172.948 13.4156C173.068 13.4455 173.187 13.4755 173.307 13.5054V14.9413C172.529 14.8515 171.796 14.8515 171.108 14.9413C170.42 15.031 169.732 15.1357 169.044 15.2554V24.7681H167.429ZM179.409 24.9476C178.616 24.9476 177.95 24.7082 177.412 24.2296C176.873 23.736 176.604 23.0106 176.604 22.0534V15.0534H174.652V13.5727H176.604V10.4093H178.219V13.5727H181.114V15.0534H178.219V21.5373C178.219 22.1655 178.317 22.6367 178.511 22.9508C178.706 23.2649 179.102 23.4219 179.7 23.4219C180.254 23.4219 180.725 23.3322 181.114 23.1527V24.6783C180.904 24.7531 180.635 24.8129 180.306 24.8578C179.992 24.9176 179.693 24.9476 179.409 24.9476ZM188.726 25.1046C187.23 25.1046 186.071 24.7232 185.248 23.9604C184.44 23.1826 184.037 22.0833 184.037 20.6623V13.5727H185.652V20.3034C185.652 21.4401 185.899 22.2777 186.392 22.8162C186.901 23.3397 187.679 23.6014 188.726 23.6014C189.773 23.6014 190.543 23.3397 191.037 22.8162C191.545 22.2777 191.799 21.4401 191.799 20.3034V13.5727H193.415V20.6623C193.415 22.0833 193.003 23.1826 192.181 23.9604C191.373 24.7232 190.221 25.1046 188.726 25.1046ZM201.405 25.0822C201.001 25.0822 200.545 25.0149 200.036 24.8802C199.527 24.7606 199.056 24.611 198.623 24.4315V29.6366H197.007V15.5919C197.007 15.1282 197.149 14.7543 197.433 14.4701C197.733 14.1859 198.114 13.969 198.578 13.8195C199.041 13.6549 199.535 13.5428 200.058 13.4829C200.582 13.4082 201.076 13.3708 201.539 13.3708C202.437 13.3708 203.282 13.5577 204.074 13.9317C204.867 14.3056 205.51 14.9413 206.004 15.8387C206.497 16.7211 206.744 17.9252 206.744 19.4508C206.744 21.1709 206.288 22.5395 205.376 23.5565C204.463 24.5736 203.14 25.0822 201.405 25.0822ZM201.405 23.6014C202.631 23.6014 203.543 23.22 204.142 22.4572C204.74 21.6794 205.039 20.6773 205.039 19.4508C205.039 18.6431 204.949 17.8878 204.77 17.1848C204.59 16.4818 204.246 15.9209 203.738 15.5021C203.229 15.0684 202.489 14.8515 201.517 14.8515C200.739 14.8515 200.058 14.9413 199.475 15.1207C198.907 15.3002 198.623 15.5545 198.623 15.8836V22.8162C199.52 23.3397 200.447 23.6014 201.405 23.6014Z" fill="white"/>
<defs>
<radialGradient id="paint0_angular" cx="0" cy="0" r="1" gradientUnits="userSpaceOnUse" gradientTransform="translate(15.7913 17.1558) rotate(90) scale(2.45707 2.45632)">
<stop stop-color="#3A4759"/>
<stop offset="1" stop-color="#031845"/>
</radialGradient>
<radialGradient id="paint1_angular" cx="0" cy="0" r="1" gradientUnits="userSpaceOnUse" gradientTransform="translate(24.2014 17.1449) rotate(90) scale(2.45707 2.45632)">
<stop stop-color="#3A4759"/>
<stop offset="1" stop-color="#031845"/>
</radialGradient>
<linearGradient id="paint2_linear" x1="19.8968" y1="2.40363" x2="19.8968" y2="34.5866" gradientUnits="userSpaceOnUse">
<stop stop-color="#DAF2FE"/>
<stop offset="0.207385" stop-color="#4AB8FB"/>
<stop offset="1" stop-color="#0140C7"/>
</linearGradient>
<linearGradient id="paint3_linear" x1="19.8956" y1="6.22736" x2="19.8956" y2="24.5007" gradientUnits="userSpaceOnUse">
<stop offset="0.453125" stop-color="#1F62F2"/>
<stop offset="0.9999" stop-color="#4AB8FB"/>
<stop offset="1" stop-color="#DAF2FE"/>
</linearGradient>
<linearGradient id="paint4_linear" x1="19.8956" y1="6.22736" x2="19.8956" y2="24.5007" gradientUnits="userSpaceOnUse">
<stop offset="0.453125" stop-color="#1F62F2"/>
<stop offset="0.9999" stop-color="#4AB8FB"/>
<stop offset="1" stop-color="#DAF2FE"/>
</linearGradient>
<linearGradient id="paint5_linear" x1="19.8956" y1="6.22736" x2="19.8956" y2="24.5007" gradientUnits="userSpaceOnUse">
<stop offset="0.453125" stop-color="#1F62F2"/>
<stop offset="0.9999" stop-color="#4AB8FB"/>
<stop offset="1" stop-color="#DAF2FE"/>
</linearGradient>
<radialGradient id="paint6_angular" cx="0" cy="0" r="1" gradientUnits="userSpaceOnUse" gradientTransform="translate(19.8959 8.68806) rotate(90) scale(3.94581 17.2138)">
<stop stop-color="#3A4759"/>
<stop offset="1" stop-color="#031845"/>
</radialGradient>
<linearGradient id="paint7_linear" x1="26.8796" y1="16.6577" x2="26.8796" y2="33.0034" gradientUnits="userSpaceOnUse">
<stop offset="0.453125" stop-color="#1F62F2"/>
<stop offset="0.9999" stop-color="#4AB8FB"/>
<stop offset="1" stop-color="#DAF2FE"/>
</linearGradient>
</defs>
</svg>
